<svg version="1.1" xmlns="http://www.w3.org/2000/svg" width="32" height="32" viewBox="0 0 32 32">
<title>copy</title>
<path d="M30.857 0h-22.857c-0.632 0-1.143 0.511-1.143 1.143v5.714h-5.714c-0.632 0-1.143 0.511-1.143 1.143v22.857c0 0.632 0.511 1.143 1.143 1.143h22.857c0.632 0 1.143-0.511 1.143-1.143v-5.714h5.714c0.632 0 1.143-0.511 1.143-1.143v-22.857c0-0.632-0.511-1.143-1.143-1.143v0zM22.857 29.714h-20.571v-20.571h20.571v20.571h-0zM29.714 22.857h-4.571v-14.857c0-0.632-0.511-1.143-1.143-1.143h-14.857v-4.571h20.571v20.571h-0z"></path>
</svg>
